<?xml version="1.0" encoding="utf-8"?>
<svg version="1.1" xmlns:xlink="http://www.w3.org/1999/xlink" width="42px" height="42px" xmlns="http://www.w3.org/2000/svg">
  <g transform="matrix(1 0 0 1 -26 -85 )">
    <path d="M 47 85  C 58.76 85  68 94.24  68 106  C 68 117.76  58.76 127  47 127  C 35.24 127  26 117.76  26 106  C 26 94.24  35.24 85  47 85  Z " fill-rule="nonzero" fill="#ffffff" stroke="none" />
    <path d="M 47 85.5  C 58.48 85.5  67.5 94.52  67.5 106  C 67.5 117.48  58.48 126.5  47 126.5  C 35.52 126.5  26.5 117.48  26.5 106  C 26.5 94.52  35.52 85.5  47 85.5  Z " stroke-width="1" stroke="#797979" fill="none" />
  </g>
</svg>